<svg width="100" height="100" viewBox="0 0 100 100" fill="none" xmlns="http://www.w3.org/2000/svg">
  <circle cx="50" cy="50" r="45" fill="#1A1A1A"/>
  <path d="M50 15C45 28 42 35 42 50C42 65 45 72 50 85" stroke="white" stroke-width="2"/>
  <path d="M42 35C50 40 58 42 70 42" stroke="white" stroke-width="2"/>
  <path d="M42 45C50 50 58 52 70 52" stroke="white" stroke-width="2"/>
  <path d="M42 55C50 60 58 62 70 62" stroke="white" stroke-width="2"/>
  <path d="M42 65C50 70 58 72 70 72" stroke="white" stroke-width="2"/>
  <path d="M50 15C55 28 58 35 58 50C58 65 55 72 50 85" stroke="white" stroke-width="2"/>
</svg>
