<?xml version="1.0" encoding="UTF-8"?>
<svg width="512px" height="512px" viewBox="0 0 512 512" version="1.1" xmlns="http://www.w3.org/2000/svg">
    <title>Tobacco Leaf</title>
    <g id="Tobacco-Leaf" stroke="none" stroke-width="1" fill="none" fill-rule="evenodd">
        <path d="M256,40 C187.325,114.657 159.992,152.325 173.999,153.005 C188.006,153.685 203.997,142.339 190.006,172.998 C176.014,203.658 128.021,241.99 111.027,250.318 C94.033,258.647 79.036,262.644 65.043,271.972 C51.049,281.301 47.047,289.963 53.048,309.955 C59.049,329.947 77.037,339.942 93.031,339.942 C109.025,339.942 135.02,329.947 144.016,317.283 C153.012,304.62 158.01,291.29 175.004,290.623 C192,289.956 210.986,301.952 218.982,315.282 C226.979,328.614 230.98,351.937 246.974,364.601 C262.968,377.265 286.96,378.598 297.958,359.272 C308.956,339.946 297.958,319.28 322.948,317.28 C347.938,315.28 367.93,349.944 376.928,361.942 C385.926,373.94 409.917,381.606 430.909,363.612 C451.901,345.618 458.9,305.954 460.896,286.622 C462.891,267.29 454.893,247.29 437.903,235.292 C420.913,223.294 385.926,220.628 366.932,210.963 C347.938,201.298 343.94,188.302 354.936,170.308 C365.932,152.314 384.924,146.312 402.916,138.648 C420.908,130.982 446.902,121.985 458.9,93.99 C470.898,65.995 440.906,40 420.913,40 C400.92,40.0001 360.934,33.9998 339.944,69.998 C318.953,105.996 320.95,117.994 296.96,128.658 C272.97,139.324 247.978,104.662 256,40 Z" id="Path" stroke="#412C20" stroke-width="10" fill="#D0A265"></path>
        <path d="M256,40 C291.968,78.3613 317.274,109.359 331.919,132.993 C339.241,145.81 347.003,164.31 335.967,172.995 C323.167,182.995 302.5,169.5 312.5,191.5 C322.5,213.5 336.5,225.5 357.5,222 C378.5,218.5 395,207.5 413,201 C431,194.5 449,192.5 453.5,215 C458,237.5 450.5,256 434.5,267 C418.5,278 387.5,282.5 371.5,288.5 C355.5,294.5 348,301 353,315 C358,329 374.5,335.5 388,331.5 C401.5,327.5 423,317 430,328.5 C437,340 434.5,354.5 414,363 C393.5,371.5 375,368 359,361 C343,354 324.5,343.5 306,349 C287.5,354.5 276.5,371.5 269,387.5 C261.5,403.5 240.5,400 231,390 C221.5,380 216,367 197.5,351.5 C179,336 161,335.5 148,353 C135,370.5 139.5,390 126,397.5 C112.5,405 89.5,401.5 79,382 C68.5,362.5 72,338 96,327 C120,316 139,321.5 158,314 C177,306.5 184,292 177,272 C170,252 150,249 124,249 C98,249 74,241 69.5,219.5 C65,198 80,185 96,177 C112,169 133.5,164.5 153,152 C172.5,139.5 190,118.5 196.5,93 C203,67.5 220,40 256,40 Z" id="Path" stroke="#412C20" stroke-width="4" stroke-linecap="round" stroke-linejoin="round" stroke-dasharray="8,12"></path>
    </g>
</svg>
